<svg version="1.1" viewBox="0.0 0.0 867.3202099737533 433.66141732283467" fill="none" stroke="none" stroke-linecap="square" stroke-miterlimit="10" xmlns:xlink="http://www.w3.org/1999/xlink" xmlns="http://www.w3.org/2000/svg"><clipPath id="p.0"><path d="m0 0l867.3202 0l0 433.6614l-867.3202 0l0 -433.6614z" clip-rule="nonzero"/></clipPath><g clip-path="url(#p.0)"><path fill="#999999" d="m0 0l867.3202 0l0 433.6614l-867.3202 0z" fill-rule="evenodd"/><path fill="#000000" fill-opacity="0.0" d="m104.91076 58.92126l659.65356 0l0 308.97638l-659.65356 0z" fill-rule="evenodd"/><path fill="#ffffff" d="m246.44202 158.85876l-40.796875 0l0 146.65625l40.796875 0l0 18.40625l-105.0625 0l0 -18.40625l40.796875 0l0 -146.65625l-40.796875 0l0 -18.65625l105.0625 0l0 18.65625zm168.25934 120.53125l-23.734375 0l0 44.53125l-21.59375 0l0 -44.53125l-76.265656 0l0 -16.53125l53.859375 -125.59375l18.671906 8.0l-48.796906 115.984375l52.796906 0l1.859375 -51.984375l19.46875 0l0 51.984375l23.734375 0l0 18.140625zm166.6499 -47.203125q0 42.9375 -17.46875 68.8125q-17.453125 25.859375 -49.984375 25.859375q-32.796844 0 -50.140594 -25.328125q-17.328125 -25.34375 -17.328125 -69.078125q0 -28.0 7.734375 -49.59375q7.734375 -21.59375 22.921875 -33.59375q15.203125 -12.0 36.81247 -12.0q32.53125 0 49.984375 25.734375q17.46875 25.734375 17.46875 69.1875zm-23.984375 0q0 -37.59375 -10.40625 -56.515625q-10.40625 -18.9375 -33.0625 -18.9375q-22.671844 0 -33.078094 19.0625q-10.390625 19.0625 -10.390625 56.65625q0 37.34375 10.53125 56.140625q10.53125 18.796875 32.93747 18.796875q22.65625 0 33.0625 -18.796875q10.40625 -18.796875 10.40625 -56.40625zm131.99371 -94.921875q17.0625 0 29.328125 4.40625q12.265625 4.390625 24.0 13.453125l-13.0625 15.203125q-16.265625 -13.59375 -38.671875 -13.59375q-24.796875 0 -40.40625 18.0q-15.59375 18.0 -15.59375 57.1875q0 38.9375 15.203125 57.078125q15.203125 18.125 40.53125 18.125q13.859375 0 23.71875 -4.0q9.875 -4.0 18.953125 -11.203125l11.984375 14.9375q-20.53125 20.0 -54.921875 20.0q-22.671875 0 -40.8125 -11.0625q-18.125 -11.078125 -28.53125 -32.40625q-10.390625 -21.328125 -10.390625 -51.46875q0 -29.859375 10.53125 -51.328125q10.53125 -21.46875 28.53125 -32.390625q18.0 -10.9375 39.609375 -10.9375z" fill-rule="nonzero"/></g></svg>